<svg xmlns="http://www.w3.org/2000/svg" viewBox="0 0 32 32" width="32" height="32">
  <!-- Radio body -->
  <rect x="4" y="12" width="24" height="16" rx="2" ry="2" fill="#2d3748" stroke="#4a5568" stroke-width="1"/>
  
  <!-- Speaker grille -->
  <circle cx="10" cy="20" r="3" fill="#1a202c" stroke="#4a5568" stroke-width="0.5"/>
  <circle cx="10" cy="20" r="1.5" fill="#4a5568"/>
  
  <!-- Control knobs -->
  <circle cx="20" cy="17" r="2" fill="#4a5568" stroke="#718096" stroke-width="0.5"/>
  <circle cx="26" cy="17" r="2" fill="#4a5568" stroke="#718096" stroke-width="0.5"/>
  <circle cx="20" cy="23" r="2" fill="#4a5568" stroke="#718096" stroke-width="0.5"/>
  <circle cx="26" cy="23" r="2" fill="#4a5568" stroke="#718096" stroke-width="0.5"/>
  
  <!-- Knob indicators -->
  <line x1="20" y1="15.5" x2="20" y2="16.5" stroke="#e2e8f0" stroke-width="0.5"/>
  <line x1="26" y1="15.5" x2="26" y2="16.5" stroke="#e2e8f0" stroke-width="0.5"/>
  <line x1="20" y1="21.5" x2="20" y2="22.5" stroke="#e2e8f0" stroke-width="0.5"/>
  <line x1="26" y1="21.5" x2="26" y2="22.5" stroke="#e2e8f0" stroke-width="0.5"/>
  
  <!-- Antenna -->
  <line x1="8" y1="12" x2="6" y2="4" stroke="#718096" stroke-width="1.5" stroke-linecap="round"/>
  <line x1="24" y1="12" x2="26" y2="4" stroke="#718096" stroke-width="1.5" stroke-linecap="round"/>
  
  <!-- Signal waves -->
  <path d="M 6 8 Q 8 6 10 8" fill="none" stroke="#48bb78" stroke-width="1" opacity="0.8"/>
  <path d="M 22 8 Q 24 6 26 8" fill="none" stroke="#48bb78" stroke-width="1" opacity="0.8"/>
  <path d="M 5 10 Q 8 7 11 10" fill="none" stroke="#48bb78" stroke-width="0.8" opacity="0.6"/>
  <path d="M 21 10 Q 24 7 27 10" fill="none" stroke="#48bb78" stroke-width="0.8" opacity="0.6"/>
</svg>
